<?xml version="1.0" standalone="no"?>
<!DOCTYPE svg PUBLIC "-//W3C//DTD SVG 20010904//EN"
 "http://www.w3.org/TR/2001/REC-SVG-20010904/DTD/svg10.dtd">
<svg version="1.0" xmlns="http://www.w3.org/2000/svg"
 width="500.000000pt" height="500.000000pt" viewBox="0 0 500.000000 500.000000"
 preserveAspectRatio="xMidYMid meet">
<metadata>
Created by potrace 1.16, written by Peter Selinger 2001-2019
</metadata>
<g transform="translate(0.000000,500.000000) scale(0.100000,-0.100000)"
fill="#000000" stroke="none">
<path d="M3148 2884 c-114 -27 -204 -93 -234 -169 -44 -117 48 -210 176 -176
45 12 79 35 68 46 -3 4 -21 -1 -39 -10 -18 -10 -55 -18 -82 -18 -44 -1 -53 3
-78 31 -68 76 -18 181 116 243 150 70 330 58 405 -27 25 -29 30 -43 30 -88 0
-92 -54 -142 -172 -161 -44 -7 -51 -25 -10 -25 102 0 195 69 207 155 9 60 -15
127 -58 159 -72 54 -205 71 -329 40z"/>
<path d="M787 2870 c-156 -50 -267 -192 -267 -343 0 -81 23 -125 81 -155 94
-50 241 -3 342 109 61 66 67 64 67 -21 0 -40 -4 -51 -21 -61 -43 -23 -111 -94
-135 -141 -49 -97 -21 -168 65 -168 82 0 121 75 121 230 0 76 1 81 25 92 32
15 32 32 0 26 -20 -4 -26 -1 -31 18 -7 26 1 148 12 202 5 25 3 32 -9 32 -17 0
-27 -21 -27 -55 0 -32 -73 -138 -124 -180 -64 -52 -128 -77 -198 -77 -44 0
-68 5 -87 19 -94 69 -73 241 44 358 65 66 135 97 226 103 113 7 171 -28 203
-121 13 -38 32 -43 27 -7 -8 62 -67 125 -135 145 -64 19 -108 18 -179 -5z
m231 -573 c-7 -129 -54 -200 -121 -183 -57 14 -59 79 -6 159 28 43 101 107
122 107 6 0 8 -35 5 -83z"/>
<path d="M1746 2825 c-25 -25 -38 -93 -38 -197 0 -95 -1 -98 -23 -98 -24 0
-56 -33 -107 -109 -17 -25 -36 -41 -48 -41 -21 0 -40 27 -40 59 0 34 -19 33
-33 -1 -28 -67 -77 -75 -77 -11 0 54 72 110 95 73 9 -15 25 -12 25 4 0 17 -21
26 -60 26 -26 0 -90 -51 -90 -72 0 -4 -14 -23 -31 -43 -53 -60 -96 -40 -86 40
8 57 1 75 -30 75 -18 0 -27 8 -34 30 -13 36 -23 38 -43 8 -21 -29 -20 -58 0
-58 12 0 15 -7 12 -25 -8 -38 11 -42 25 -6 7 19 18 31 29 31 15 0 18 -9 18
-64 0 -39 5 -67 13 -74 29 -23 54 -22 92 3 37 26 37 26 52 6 17 -25 50 -27 81
-5 21 15 25 15 41 0 25 -22 61 -20 88 6 l23 22 16 -22 c19 -28 57 -28 84 0 11
12 20 25 20 30 0 4 5 8 10 8 6 0 10 -6 10 -13 0 -21 34 -47 62 -47 13 0 35 11
48 25 l23 25 19 -30 c26 -44 70 -42 114 7 19 20 34 31 34 24 0 -23 48 -61 79
-61 41 0 92 46 122 110 13 27 28 50 32 50 5 0 7 -33 5 -72 -3 -64 -1 -73 14
-73 10 0 33 26 56 65 50 82 67 84 68 9 1 -70 7 -79 49 -79 27 0 40 8 64 37 17
21 31 33 31 27 0 -23 49 -64 78 -64 37 0 102 69 102 109 0 24 -21 9 -40 -29
-12 -23 -32 -46 -47 -53 -23 -10 -28 -8 -49 16 -30 35 -30 40 0 129 14 40 28
97 32 126 l7 52 93 0 c56 0 94 4 94 10 0 6 -38 10 -94 10 l-94 0 -11 30 c-14
42 -45 39 -70 -7 -10 -21 -19 -23 -81 -23 -38 0 -72 -4 -75 -10 -4 -6 20 -10
64 -10 l71 0 0 -126 c0 -135 -10 -170 -56 -194 -34 -19 -44 -4 -44 60 0 47 -4
61 -18 69 -26 14 -56 -9 -93 -72 l-30 -52 1 50 c3 93 2 97 -22 93 -16 -2 -32
-20 -53 -59 -42 -79 -62 -99 -101 -99 -45 0 -49 13 -14 48 48 48 36 102 -22
102 -23 0 -32 -8 -54 -52 -29 -58 -71 -108 -91 -108 -29 0 -46 48 -39 110 6
48 4 60 -7 60 -10 0 -16 -15 -19 -45 -6 -52 -49 -115 -78 -115 -25 0 -54 54
-47 89 3 14 17 64 31 110 51 164 28 311 -38 246z"/>
<path d="M3292 2765 c-33 -37 -38 -58 -46 -207 -8 -139 -43 -188 -136 -188
-47 0 -73 11 -112 48 -21 20 -28 22 -28 10 0 -26 65 -75 108 -83 75 -12 138
18 172 85 7 14 16 79 20 146 8 121 16 150 52 190 11 13 15 24 10 28 -6 3 -24
-10 -40 -29z"/>
<path d="M3805 2566 c-19 -29 -14 -56 10 -56 21 0 19 -7 -15 -67 -16 -28 -39
-54 -50 -58 -26 -8 -50 10 -50 39 0 11 -4 28 -10 36 -7 11 -11 8 -20 -15 -24
-63 -62 -83 -81 -42 -23 51 38 121 86 99 17 -8 26 -8 31 -1 15 25 -58 39 -97
19 -43 -24 -64 -113 -33 -144 21 -22 60 -20 84 4 19 19 20 19 30 0 7 -14 21
-20 45 -20 27 0 40 8 65 38 17 20 36 54 42 75 8 25 17 37 30 37 15 0 18 -8 18
-58 0 -71 15 -95 59 -95 37 0 77 35 109 96 l21 39 15 -31 c20 -37 20 -55 2
-70 -11 -9 -20 -9 -35 -2 -26 14 -36 -2 -13 -21 42 -36 115 -26 155 22 l24 28
13 -23 c13 -24 49 -45 78 -45 30 0 76 36 100 78 26 46 13 69 -14 25 -35 -55
-57 -73 -90 -73 -45 0 -49 13 -14 48 45 46 37 102 -15 102 -27 0 -51 -26 -60
-63 -10 -39 -67 -97 -96 -97 -18 0 -20 3 -11 12 17 17 14 57 -8 107 -11 24
-20 54 -20 67 0 15 -6 24 -15 24 -11 0 -15 -11 -15 -35 0 -88 -104 -203 -137
-152 -4 6 -8 39 -8 72 0 58 -1 60 -30 65 -20 4 -31 12 -35 29 -8 34 -26 37
-45 7z"/>
</g>
</svg>
