<?xml version="1.0" standalone="no"?>
<!DOCTYPE svg PUBLIC "-//W3C//DTD SVG 20010904//EN"
 "http://www.w3.org/TR/2001/REC-SVG-20010904/DTD/svg10.dtd">
<svg version="1.0" xmlns="http://www.w3.org/2000/svg"
 width="469.000000pt" height="106.000000pt" viewBox="0 0 469.000000 106.000000"
 preserveAspectRatio="xMidYMid meet">
<metadata>
Created by potrace 1.16, written by Peter Selinger 2001-2019
</metadata>
<g transform="translate(0.000000,106.000000) scale(0.100000,-0.100000)"
fill="#000000" stroke="none">
<path d="M1506 679 c-14 -11 -29 -34 -34 -51 -6 -26 -15 -33 -53 -44 -101 -30
-185 -167 -133 -218 26 -26 54 -18 100 27 l43 43 3 -40 c4 -58 33 -60 90 -7
24 22 40 43 35 47 -4 4 -17 -2 -30 -14 -13 -12 -29 -22 -37 -22 -19 0 -7 78
29 185 42 123 40 136 -13 94z"/>
<path d="M417 656 c-74 -27 -117 -91 -117 -176 0 -86 50 -118 134 -84 16 6 17
3 11 -27 -19 -89 -63 -115 -104 -63 -15 19 -26 24 -41 19 -54 -17 17 -79 83
-71 81 9 123 68 142 200 7 46 7 46 -22 46 -25 0 -32 -5 -39 -32 -12 -40 -55
-68 -81 -52 -37 23 -23 139 25 195 29 35 65 38 89 5 15 -19 22 -22 40 -13 29
13 29 21 -3 46 -31 24 -63 26 -117 7z"/>
<path d="M2563 652 c-12 -9 -25 -29 -28 -43 -5 -19 -15 -28 -36 -33 -37 -7
-38 -26 -1 -26 27 -1 26 -1 -18 -39 -25 -22 -42 -43 -37 -47 4 -4 17 2 30 14
32 30 37 28 26 -10 -5 -18 -9 -50 -9 -70 0 -32 4 -39 25 -44 25 -6 62 14 99
55 26 29 12 40 -17 13 -24 -23 -42 -28 -51 -14 -3 5 2 38 10 75 16 67 16 67
50 67 38 0 74 15 74 30 0 6 -19 7 -46 3 -52 -7 -49 -13 -28 65 8 27 -11 29
-43 4z"/>
<path d="M2793 651 c-46 -21 -67 -52 -58 -81 5 -16 10 -17 30 -8 19 8 23 16
19 34 -7 26 18 44 61 44 25 0 25 -1 11 -27 -7 -16 -24 -72 -36 -126 -23 -104
-37 -122 -70 -92 -19 17 -50 15 -50 -4 0 -14 41 -41 63 -41 11 0 34 7 53 16
26 13 38 27 51 65 13 37 23 49 38 49 39 0 98 22 121 45 35 35 34 98 -2 122
-41 26 -177 29 -231 4z"/>
<path d="M705 576 c-36 -17 -132 -113 -122 -123 4 -4 28 13 52 37 25 24 45 38
45 30 0 -7 -9 -47 -21 -88 -11 -40 -19 -76 -16 -78 2 -3 16 0 29 7 16 7 33 30
47 64 12 29 33 66 47 80 24 26 35 27 75 11 16 -7 79 36 79 53 0 4 -15 7 -32 7
-18 0 -41 4 -51 8 -15 7 -29 -2 -68 -44 l-49 -52 15 49 c8 26 15 49 15 51 0 5
-16 1 -45 -12z"/>
<path d="M1186 583 c-4 -5 -29 -8 -55 -8 -35 0 -58 -7 -88 -27 -71 -47 -114
-146 -78 -181 26 -26 52 -20 100 24 l44 40 3 -38 c4 -55 35 -56 90 -4 24 22
40 43 35 47 -4 4 -17 -2 -30 -14 -52 -49 -61 -10 -23 101 21 61 21 79 2 60z"/>
<path d="M1700 570 c-42 -22 -127 -107 -117 -117 4 -4 28 13 52 37 25 24 45
40 45 35 0 -6 -8 -40 -17 -77 -16 -63 -16 -69 -1 -84 23 -23 63 -11 106 32 39
39 37 57 -4 25 -30 -24 -54 -27 -54 -8 0 7 11 50 24 95 26 89 23 93 -34 62z"/>
<path d="M1931 568 c-87 -43 -133 -167 -76 -204 17 -11 35 -14 58 -10 34 6
117 61 117 77 0 16 -21 10 -52 -17 -43 -35 -82 -30 -86 11 -3 29 0 32 47 44
49 12 101 52 101 77 0 18 -28 44 -48 44 -9 0 -37 -10 -61 -22z"/>
<path d="M2195 576 c-37 -17 -145 -126 -125 -126 8 0 31 19 51 43 20 23 39 40
42 37 3 -3 -5 -44 -18 -92 -15 -59 -19 -88 -11 -88 25 0 55 32 70 76 26 78 81
136 100 106 3 -5 -4 -37 -15 -73 -21 -68 -15 -109 16 -109 24 0 67 25 94 54
30 32 20 47 -12 18 -25 -23 -42 -28 -51 -13 -3 4 3 39 14 76 33 116 -9 141
-92 55 -52 -54 -55 -53 -33 9 16 45 14 46 -30 27z"/>
<path d="M3330 579 c-8 -5 -27 -6 -41 -3 -52 10 -142 -45 -175 -108 -18 -35
-18 -92 1 -108 23 -19 66 -3 106 41 l37 40 -5 -39 c-5 -34 -2 -41 15 -46 26
-9 74 15 102 51 25 33 10 43 -19 14 -24 -24 -51 -27 -51 -6 0 8 11 49 25 92
13 42 23 78 22 80 -2 1 -9 -2 -17 -8z"/>
<path d="M3525 576 c-36 -17 -132 -113 -122 -123 4 -4 28 13 52 37 25 24 45
38 45 30 0 -7 -9 -47 -21 -88 -11 -40 -19 -76 -16 -78 2 -3 16 0 29 7 16 7 33
30 47 64 12 29 33 66 47 80 24 26 35 27 75 11 16 -7 79 36 79 53 0 4 -15 7
-32 7 -18 0 -41 4 -51 8 -15 7 -29 -2 -68 -44 l-49 -52 15 49 c8 26 15 49 15
51 0 5 -16 1 -45 -12z"/>
<path d="M3883 566 c-26 -23 -27 -26 -16 -57 7 -18 12 -33 10 -34 -65 -45
-118 -90 -108 -93 6 -2 21 4 32 14 18 16 19 16 19 -5 0 -49 116 -54 157 -6 30
34 29 60 -4 91 l-26 24 21 30 c28 37 28 46 0 54 -40 10 -56 7 -85 -18z"/>
<path d="M4139 561 c-58 -36 -89 -86 -89 -139 0 -82 84 -95 162 -24 46 41 34
58 -13 18 -37 -32 -74 -34 -89 -5 -17 31 -7 43 49 58 34 8 59 23 76 43 29 35
30 41 9 62 -23 23 -54 20 -105 -13z"/>
</g>
</svg>
